<svg width="18" height="20" viewBox="0 0 18 20" fill="none" xmlns="http://www.w3.org/2000/svg">
<path d="M2 20C1.45 20 0.979333 19.8043 0.588 19.413C0.196667 19.0217 0.000666667 18.5507 0 18V4C0 3.45 0.196 2.97933 0.588 2.588C0.98 2.19667 1.45067 2.00067 2 2H3V0H5V2H13V0H15V2H16C16.55 2 17.021 2.196 17.413 2.588C17.805 2.98 18.0007 3.45067 18 4V18C18 18.55 17.8043 19.021 17.413 19.413C17.0217 19.805 16.5507 20.0007 16 20H2ZM2 18H16V8H2V18ZM2 6H16V4H2V6ZM9 12C8.71667 12 8.47933 11.904 8.288 11.712C8.09667 11.52 8.00067 11.2827 8 11C8 10.7167 8.096 10.4793 8.288 10.288C8.48 10.0967 8.71733 10.0007 9 10C9.28333 10 9.521 10.096 9.713 10.288C9.905 10.48 10.0007 10.7173 10 11C10 11.2833 9.904 11.521 9.712 11.713C9.52 11.905 9.28267 12.0007 9 12ZM5 12C4.71667 12 4.47933 11.904 4.288 11.712C4.09667 11.52 4.00067 11.2827 4 11C4 10.7167 4.096 10.4793 4.288 10.288C4.48 10.0967 4.71733 10.0007 5 10C5.28333 10 5.521 10.096 5.713 10.288C5.905 10.48 6.00067 10.7173 6 11C6 11.2833 5.904 11.521 5.712 11.713C5.52 11.905 5.28267 12.0007 5 12ZM13 12C12.7167 12 12.4793 11.904 12.288 11.712C12.0967 11.52 12.0007 11.2827 12 11C12 10.7167 12.096 10.4793 12.288 10.288C12.48 10.0967 12.7173 10.0007 13 10C13.2833 10 13.521 10.096 13.713 10.288C13.905 10.48 14.0007 10.7173 14 11C14 11.2833 13.904 11.521 13.712 11.713C13.52 11.905 13.2827 12.0007 13 12ZM9 16C8.71667 16 8.47933 15.904 8.288 15.712C8.09667 15.52 8.00067 15.2827 8 15C8 14.7167 8.096 14.4793 8.288 14.288C8.48 14.0967 8.71733 14.0007 9 14C9.28333 14 9.521 14.096 9.713 14.288C9.905 14.48 10.0007 14.7173 10 15C10 15.2833 9.904 15.521 9.712 15.713C9.52 15.905 9.28267 16.0007 9 16ZM5 16C4.71667 16 4.47933 15.904 4.288 15.712C4.09667 15.52 4.00067 15.2827 4 15C4 14.7167 4.096 14.4793 4.288 14.288C4.48 14.0967 4.71733 14.0007 5 14C5.28333 14 5.521 14.096 5.713 14.288C5.905 14.48 6.00067 14.7173 6 15C6 15.2833 5.904 15.521 5.712 15.713C5.52 15.905 5.28267 16.0007 5 16ZM13 16C12.7167 16 12.4793 15.904 12.288 15.712C12.0967 15.52 12.0007 15.2827 12 15C12 14.7167 12.096 14.4793 12.288 14.288C12.48 14.0967 12.7173 14.0007 13 14C13.2833 14 13.521 14.096 13.713 14.288C13.905 14.48 14.0007 14.7173 14 15C14 15.2833 13.904 15.521 13.712 15.713C13.52 15.905 13.2827 16.0007 13 16Z" fill="currentColor"/>
</svg>
