<svg width="16" height="4" viewBox="0 0 16 4" fill="none" xmlns="http://www.w3.org/2000/svg">
<path d="M2 4C1.45 4 0.979333 3.80433 0.588 3.413C0.196666 3.02167 0.000666667 2.55067 0 2C0 1.45 0.196 0.979334 0.588 0.588C0.98 0.196667 1.45067 0.000666667 2 0C2.55 0 3.021 0.196 3.413 0.588C3.805 0.98 4.00067 1.45067 4 2C4 2.55 3.80433 3.021 3.413 3.413C3.02167 3.805 2.55067 4.00067 2 4ZM8 4C7.45 4 6.97933 3.80433 6.588 3.413C6.19667 3.02167 6.00067 2.55067 6 2C6 1.45 6.196 0.979334 6.588 0.588C6.98 0.196667 7.45067 0.000666667 8 0C8.55 0 9.021 0.196 9.413 0.588C9.805 0.98 10.0007 1.45067 10 2C10 2.55 9.80433 3.021 9.413 3.413C9.02167 3.805 8.55067 4.00067 8 4ZM14 4C13.45 4 12.9793 3.80433 12.588 3.413C12.1967 3.02167 12.0007 2.55067 12 2C12 1.45 12.196 0.979334 12.588 0.588C12.98 0.196667 13.4507 0.000666667 14 0C14.55 0 15.021 0.196 15.413 0.588C15.805 0.98 16.0007 1.45067 16 2C16 2.55 15.8043 3.021 15.413 3.413C15.0217 3.805 14.5507 4.00067 14 4Z" fill="#6D7B6D"/>
</svg>
