<svg width="19" height="18" viewBox="0 0 19 18" fill="none" xmlns="http://www.w3.org/2000/svg">
<path d="M7 13C5.18333 13 3.646 12.3707 2.388 11.112C1.13 9.85333 0.500667 8.316 0.5 6.5C0.5 4.68333 1.12933 3.146 2.388 1.888C3.64667 0.63 5.184 0.000666667 7 0C8.81667 0 10.3543 0.629333 11.613 1.888C12.8717 3.14667 13.5007 4.684 13.5 6.5C13.5 7.23333 13.3833 7.925 13.15 8.575C12.9167 9.225 12.6 9.8 12.2 10.3L17.8 15.9C17.9833 16.0833 18.075 16.3167 18.075 16.6C18.075 16.8833 17.9833 17.1167 17.8 17.3C17.6167 17.4833 17.3833 17.575 17.1 17.575C16.8167 17.575 16.5833 17.4833 16.4 17.3L10.8 11.7C10.3 12.1 9.725 12.4167 9.075 12.65C8.425 12.8833 7.73333 13 7 13ZM7 11C8.25 11 9.31267 10.5627 10.188 9.688C11.0633 8.81333 11.5007 7.75067 11.5 6.5C11.5 5.25 11.0627 4.18767 10.188 3.313C9.31333 2.43833 8.25067 2.00067 7 2C5.75 2 4.68767 2.43767 3.813 3.313C2.93833 4.18833 2.50067 5.25067 2.5 6.5C2.5 7.75 2.93767 8.81267 3.813 9.688C4.68833 10.5633 5.75067 11.0007 7 11Z" fill="currentColor"/>
</svg>
