<svg width="22" height="20" viewBox="0 0 22 20" fill="none" xmlns="http://www.w3.org/2000/svg">
<path d="M8.25001 20L7.85001 16.8C7.63335 16.7167 7.42935 16.6167 7.23801 16.5C7.04668 16.3833 6.85901 16.2583 6.67501 16.125L3.70001 17.375L0.950012 12.625L3.52501 10.675C3.50835 10.5583 3.50001 10.446 3.50001 10.338V9.663C3.50001 9.55433 3.50835 9.44167 3.52501 9.325L0.950012 7.375L3.70001 2.625L6.67501 3.875C6.85835 3.74167 7.05001 3.61667 7.25001 3.5C7.45001 3.38333 7.65001 3.28333 7.85001 3.2L8.25001 0H13.75L14.15 3.2C14.3667 3.28333 14.571 3.38333 14.763 3.5C14.955 3.61667 15.1423 3.74167 15.325 3.875L18.3 2.625L21.05 7.375L18.475 9.325C18.4917 9.44167 18.5 9.55433 18.5 9.663V10.337C18.5 10.4457 18.4833 10.5583 18.45 10.675L21.025 12.625L18.275 17.375L15.325 16.125C15.1417 16.2583 14.95 16.3833 14.75 16.5C14.55 16.6167 14.35 16.7167 14.15 16.8L13.75 20H8.25001ZM10 18H11.975L12.325 15.35C12.8417 15.2167 13.321 15.021 13.763 14.763C14.205 14.505 14.609 14.1923 14.975 13.825L17.45 14.85L18.425 13.15L16.275 11.525C16.3583 11.2917 16.4167 11.046 16.45 10.788C16.4833 10.53 16.5 10.2673 16.5 10C16.5 9.73333 16.4833 9.471 16.45 9.213C16.4167 8.955 16.3583 8.709 16.275 8.475L18.425 6.85L17.45 5.15L14.975 6.2C14.6083 5.81667 14.2043 5.496 13.763 5.238C13.3217 4.98 12.8423 4.784 12.325 4.65L12 2H10.025L9.67501 4.65C9.15835 4.78333 8.67935 4.97933 8.23801 5.238C7.79668 5.49667 7.39235 5.809 7.02501 6.175L4.55001 5.15L3.57501 6.85L5.72501 8.45C5.64168 8.7 5.58335 8.95 5.55001 9.2C5.51668 9.45 5.50001 9.71667 5.50001 10C5.50001 10.2667 5.51668 10.525 5.55001 10.775C5.58335 11.025 5.64168 11.275 5.72501 11.525L3.57501 13.15L4.55001 14.85L7.02501 13.8C7.39168 14.1833 7.79601 14.5043 8.23801 14.763C8.68001 15.0217 9.15901 15.2173 9.67501 15.35L10 18ZM11.05 13.5C12.0167 13.5 12.8417 13.1583 13.525 12.475C14.2083 11.7917 14.55 10.9667 14.55 10C14.55 9.03333 14.2083 8.20833 13.525 7.525C12.8417 6.84167 12.0167 6.5 11.05 6.5C10.0667 6.5 9.23735 6.84167 8.56201 7.525C7.88668 8.20833 7.54935 9.03333 7.55001 10C7.55001 10.9667 7.88768 11.7917 8.56301 12.475C9.23835 13.1583 10.0673 13.5 11.05 13.5Z" fill="currentColor"/>
</svg>
