<?xml version="1.0" standalone="no"?>
<!DOCTYPE svg PUBLIC "-//W3C//DTD SVG 20010904//EN"
 "http://www.w3.org/TR/2001/REC-SVG-20010904/DTD/svg10.dtd">
<svg version="1.0" xmlns="http://www.w3.org/2000/svg"
 width="25.000000pt" height="25.000000pt" viewBox="0 0 30.000000 30.000000"
 preserveAspectRatio="xMidYMid meet">

<g transform="translate(0.000000,30.000000) scale(0.100000,-0.100000)"
fill="#000000" stroke="none">
<path d="M46 254 c-12 -11 -16 -36 -16 -99 0 -113 3 -115 136 -115 l104 0 0
100 0 100 -90 0 c-73 0 -90 3 -90 15 0 20 -24 19 -44 -1z m204 -114 l0 -81
-97 3 c-94 3 -98 4 -101 26 -3 17 2 25 17 29 18 4 21 13 21 54 l0 49 80 0 80
0 0 -80z"/>
<path d="M190 186 c0 -22 -19 -30 -35 -16 -12 10 -18 10 -30 0 -20 -17 -19
-34 1 -26 9 4 23 1 30 -5 11 -9 19 -8 34 6 10 9 24 14 29 10 7 -4 11 4 11 19
0 19 -5 26 -20 26 -11 0 -20 -6 -20 -14z"/>
<path d="M110 100 c0 -6 27 -10 60 -10 33 0 60 4 60 10 0 6 -27 10 -60 10 -33
0 -60 -4 -60 -10z"/>
</g>
</svg>
